<svg width="439" height="621" viewBox="0 0 439 621" fill="none" xmlns="http://www.w3.org/2000/svg">
<g filter="url(#filter0_d_0:1644)">
<path fill-rule="evenodd" clip-rule="evenodd" d="M340.036 235.167H341.243L341.763 235.625V304.455L341.243 304.991H340.036V235.167Z" fill="url(#paint0_linear_0:1644)"/>
<mask id="mask0_0:1644" style="mask-type:alpha" maskUnits="userSpaceOnUse" x="340" y="235" width="2" height="70">
<path fill-rule="evenodd" clip-rule="evenodd" d="M340.036 235.167H341.243L341.763 235.625V304.455L341.243 304.991H340.036V235.167Z" fill="white"/>
</mask>
<g mask="url(#mask0_0:1644)">
<g filter="url(#filter1_f_0:1644)">
<path fill-rule="evenodd" clip-rule="evenodd" d="M341.072 235.167H342.279L342.798 235.625V304.455L342.279 304.991H341.072V235.167Z" fill="#34423D"/>
</g>
</g>
<path fill-rule="evenodd" clip-rule="evenodd" d="M61.7256 274.73H61.0015L60.6897 274.958V309.168L61.0015 309.435H61.7256V274.73Z" fill="url(#paint1_linear_0:1644)"/>
<mask id="mask1_0:1644" style="mask-type:alpha" maskUnits="userSpaceOnUse" x="60" y="274" width="2" height="36">
<path fill-rule="evenodd" clip-rule="evenodd" d="M61.7256 274.73H61.0015L60.6897 274.958V309.168L61.0015 309.435H61.7256V274.73Z" fill="white"/>
</mask>
<g mask="url(#mask1_0:1644)">
<g filter="url(#filter2_f_0:1644)">
<path fill-rule="evenodd" clip-rule="evenodd" d="M61.035 274.73H60.311L59.9991 274.958V309.168L60.311 309.435H61.035V274.73Z" fill="#34423D"/>
</g>
</g>
<path fill-rule="evenodd" clip-rule="evenodd" d="M61.7256 231.002H61.0015L60.6897 231.23V265.441L61.0015 265.707H61.7256V231.002Z" fill="url(#paint2_linear_0:1644)"/>
<mask id="mask2_0:1644" style="mask-type:alpha" maskUnits="userSpaceOnUse" x="60" y="231" width="2" height="35">
<path fill-rule="evenodd" clip-rule="evenodd" d="M61.7256 231.002H61.0015L60.6897 231.23V265.441L61.0015 265.707H61.7256V231.002Z" fill="white"/>
</mask>
<g mask="url(#mask2_0:1644)">
<g filter="url(#filter3_f_0:1644)">
<path fill-rule="evenodd" clip-rule="evenodd" d="M61.035 231.002H60.311L59.9991 231.23V265.441L60.311 265.707H61.035V231.002Z" fill="#34423D"/>
</g>
</g>
<path fill-rule="evenodd" clip-rule="evenodd" d="M61.7256 192.827H61.0015L60.6897 192.959V212.802L61.0015 212.956H61.7256V192.827Z" fill="url(#paint3_linear_0:1644)"/>
<mask id="mask3_0:1644" style="mask-type:alpha" maskUnits="userSpaceOnUse" x="60" y="192" width="2" height="21">
<path fill-rule="evenodd" clip-rule="evenodd" d="M61.7256 192.827H61.0015L60.6897 192.959V212.802L61.0015 212.956H61.7256V192.827Z" fill="white"/>
</mask>
<g mask="url(#mask3_0:1644)">
<g filter="url(#filter4_f_0:1644)">
<path fill-rule="evenodd" clip-rule="evenodd" d="M61.035 192.827H60.311L59.9991 192.959V212.802L60.311 212.956H61.035V192.827Z" fill="#34423D"/>
</g>
</g>
<g filter="url(#filter5_ii_0:1644)">
<path fill-rule="evenodd" clip-rule="evenodd" d="M97.3738 120C77.4915 120 61.3738 136.118 61.3738 156V656.407C61.3738 676.29 77.4915 692.407 97.3738 692.407H185.254C185.365 692.331 185.492 692.275 185.631 692.248L186.469 692.081C186.533 692.068 186.598 692.062 186.663 692.062H211.678C211.76 692.062 211.842 692.072 211.921 692.092L212.424 692.218C212.567 692.254 212.697 692.32 212.806 692.407H304.091C323.973 692.407 340.091 676.29 340.091 656.408V156C340.091 136.118 323.973 120 304.091 120H97.3738Z" fill="white"/>
</g>
<mask id="mask4_0:1644" style="mask-type:alpha" maskUnits="userSpaceOnUse" x="61" y="120" width="280" height="573">
<path fill-rule="evenodd" clip-rule="evenodd" d="M97.3738 120C77.4915 120 61.3738 136.118 61.3738 156V656.407C61.3738 676.29 77.4915 692.407 97.3738 692.407H185.254C185.365 692.331 185.492 692.275 185.631 692.248L186.469 692.081C186.533 692.068 186.598 692.062 186.663 692.062H211.678C211.76 692.062 211.842 692.072 211.921 692.092L212.424 692.218C212.567 692.254 212.697 692.32 212.806 692.407H304.091C323.973 692.407 340.091 676.29 340.091 656.408V156C340.091 136.118 323.973 120 304.091 120H97.3738Z" fill="white"/>
</mask>
<g mask="url(#mask4_0:1644)">
<g style="mix-blend-mode:overlay" filter="url(#filter6_f_0:1644)">
<path d="M301.706 130.09L302.382 131.68C316.545 125.679 333.129 133.03 352.632 152.818L353.864 151.606C333.918 131.368 316.701 123.737 301.706 130.09Z" fill="black"/>
</g>
<g style="mix-blend-mode:overlay" filter="url(#filter7_f_0:1644)">
<path d="M101.774 130.09L101.099 131.68C86.9356 125.679 70.351 133.03 50.8485 152.818L49.6165 151.606C69.5625 131.368 86.7796 123.737 101.774 130.09Z" fill="black"/>
</g>
<path fill-rule="evenodd" clip-rule="evenodd" d="M336.287 170.09H340.436V172.854H336.287V170.09Z" fill="url(#paint4_linear_0:1644)"/>
<path fill-rule="evenodd" clip-rule="evenodd" d="M290.641 124.145V120H293.407V124.145H290.641Z" fill="url(#paint5_linear_0:1644)"/>
<path fill-rule="evenodd" clip-rule="evenodd" d="M65.5234 170.09H61.3738V172.854H65.5234V170.09Z" fill="url(#paint6_linear_0:1644)"/>
<rect x="64.8318" y="122.936" width="271.455" height="564.911" rx="32" fill="#2B2C2C"/>
<path d="M97.9066 125.472H303.212C320.173 125.472 333.922 139.221 333.922 156.182V654.844C333.922 671.805 320.173 685.554 303.212 685.554H97.9066C80.9459 685.554 67.1966 671.805 67.1966 654.844V156.182C67.1966 139.221 80.946 125.472 97.9066 125.472Z" fill="#030303" stroke="#616464" stroke-width="0.58"/>
</g>
<path fill-rule="evenodd" clip-rule="evenodd" d="M84.2869 130.709C79.1417 133.559 69.2175 140.47 68.2898 155.722V656.52C69.1382 669.687 79.5161 678.787 84.7316 681.124C77.9127 675.055 72.9575 668.159 73.1138 656.52V155.722C73.1138 145.91 76.1419 137.367 84.2869 130.709Z" fill="url(#paint7_linear_0:1644)"/>
<path fill-rule="evenodd" clip-rule="evenodd" d="M316.675 130.709C321.82 133.559 331.744 140.47 332.672 155.722V656.52C331.824 669.687 321.446 678.787 316.23 681.124C323.049 675.055 328.004 668.159 327.848 656.52V155.722C327.848 145.91 324.82 137.367 316.675 130.709Z" fill="url(#paint8_linear_0:1644)"/>
<path fill-rule="evenodd" clip-rule="evenodd" d="M83.1593 137.251C83.1593 133.903 92.1645 126.563 98.8405 126.563H300.872C308.114 126.563 317.125 132.98 317.125 139.111V147.938H83.1593C83.1593 147.938 83.1593 140.598 83.1593 137.251Z" fill="url(#paint9_radial_0:1644)"/>
<rect x="183.442" y="139.463" width="33.818" height="3.88298" rx="1.94149" fill="#1E1E1F" stroke="#29292A" stroke-width="0.58"/>
<ellipse cx="226.84" cy="141.245" rx="4.32253" ry="4.3181" fill="#161717"/>
<ellipse cx="226.926" cy="141.485" rx="2.59352" ry="2.59086" fill="#151B22" stroke="#090909" stroke-width="0.58"/>
<mask id="mask5_0:1644" style="mask-type:alpha" maskUnits="userSpaceOnUse" x="224" y="138" width="6" height="7">
<ellipse cx="226.926" cy="141.485" rx="2.59352" ry="2.59086" fill="white" stroke="white" stroke-width="0.58"/>
</mask>
<g mask="url(#mask5_0:1644)">
<g filter="url(#filter8_f_0:1644)">
<ellipse cx="225.061" cy="140.429" rx="1.52969" ry="1.14843" transform="rotate(105 225.061 140.429)" fill="#113586"/>
</g>
<g filter="url(#filter9_f_0:1644)">
<ellipse cx="228.173" cy="141.12" rx="1.52969" ry="1.14843" transform="rotate(105 228.173 141.12)" fill="#113586"/>
</g>
</g>
<path fill-rule="evenodd" clip-rule="evenodd" d="M75.3922 655.185V157.223C75.5726 156.573 75.8287 155.933 75.9198 155.271C76.2411 152.938 76.8548 150.69 77.8852 148.576C81.2613 141.647 86.9888 137.875 94.4009 136.414C95.681 136.162 96.9828 136.02 98.2746 135.827H134.652C134.764 135.91 134.865 136.023 134.991 136.072C136.893 136.814 137.605 137.809 137.645 139.808C137.654 140.247 137.644 140.687 137.648 141.127C137.692 146.689 140.586 150.853 145.788 152.81C148.149 153.698 150.603 154.008 153.121 154.008C184.751 153.997 216.381 154 248.012 154C248.647 154 249.284 154.02 249.918 153.988C252.58 153.851 255.151 153.331 257.526 152.066C261.025 150.202 263.236 147.377 263.802 143.408C263.981 142.159 263.977 140.881 264.014 139.615C264.055 138.241 264.59 137.15 265.783 136.446C266.237 136.178 266.761 136.03 267.253 135.827H303.043C303.466 135.912 303.888 136.004 304.312 136.081C306.079 136.402 307.891 136.568 309.609 137.06C318.645 139.647 324.507 146.724 325.387 155.957C325.418 156.286 325.548 156.606 325.632 156.929V655.478C325.513 656.386 325.437 657.302 325.27 658.201C323.729 666.49 319.267 672.379 311.155 675.221C308.126 676.282 304.975 676.638 301.779 676.638C234.354 676.641 166.93 676.641 99.5052 676.642C99.2118 676.642 98.9181 676.65 98.6251 676.639C95.5329 676.525 92.4781 676.141 89.5767 675.021C81.5634 671.927 77.2983 665.891 75.9653 657.576C75.8359 656.769 75.5861 655.981 75.3922 655.185" fill="#5B5B5B"/>
<mask id="mask6_0:1644" style="mask-type:alpha" maskUnits="userSpaceOnUse" x="75" y="135" width="251" height="542">
<path fill-rule="evenodd" clip-rule="evenodd" d="M75.3922 655.185V157.223C75.5726 156.573 75.8287 155.933 75.9198 155.271C76.2411 152.938 76.8548 150.69 77.8852 148.576C81.2613 141.647 86.9888 137.875 94.4009 136.414C95.681 136.162 96.9828 136.02 98.2746 135.827H134.652C134.764 135.91 134.865 136.023 134.991 136.072C136.893 136.814 137.605 137.809 137.645 139.808C137.654 140.247 137.644 140.687 137.648 141.127C137.692 146.689 140.586 150.853 145.788 152.81C148.149 153.698 150.603 154.008 153.121 154.008C184.751 153.997 216.381 154 248.012 154C248.647 154 249.284 154.02 249.918 153.988C252.58 153.851 255.151 153.331 257.526 152.066C261.025 150.202 263.236 147.377 263.802 143.408C263.981 142.159 263.977 140.881 264.014 139.615C264.055 138.241 264.59 137.15 265.783 136.446C266.237 136.178 266.761 136.03 267.253 135.827H303.043C303.466 135.912 303.888 136.004 304.312 136.081C306.079 136.402 307.891 136.568 309.609 137.06C318.645 139.647 324.507 146.724 325.387 155.957C325.418 156.286 325.548 156.606 325.632 156.929V655.478C325.513 656.386 325.437 657.302 325.27 658.201C323.729 666.49 319.267 672.379 311.155 675.221C308.126 676.282 304.975 676.638 301.779 676.638C234.354 676.641 166.93 676.641 99.5052 676.642C99.2118 676.642 98.9181 676.65 98.6251 676.639C95.5329 676.525 92.4781 676.141 89.5767 675.021C81.5634 671.927 77.2983 665.891 75.9653 657.576C75.8359 656.769 75.5861 655.981 75.3922 655.185" fill="white"/>
</mask>
<g mask="url(#mask6_0:1644)">
<rect x="75.2974" y="135.785" width="250.242" height="540.818"/>
<rect x="-859" y="59" width="1242" height="618"/>
<rect x="75" y="406" width="186" height="155" fill="#1D1D1D"/>
<path fill-rule="evenodd" clip-rule="evenodd" d="M122.564 462V442.376H139.773V462H155.201V444.866H160.795L169.881 462H177.117L181.294 451.366L187.1 462H193.65L196.751 452.905H216.601L219.687 462H227.81L230.236 445.96L236.675 462H243.444L247.753 429.762L262.598 462.092H267.155L282.007 429.75L286.378 462H298.493V438.975L301.943 462H335.003V448.618L313.853 448.618V440.235H332.246V427.581H313.853V419.336H334.326V406H298.493V438.975L293.553 406H278.147L264.874 436.472L251.686 406H236.28L230.236 445.96L214.195 406H199.115L181.294 451.366L175.981 441.634C181.513 438.322 184.869 432.69 184.869 425.818C184.869 414.112 176.118 406 164.045 406H142.639V419.959H139.773V406H107V462H122.564ZM139.773 428.873H122.564V419.959H139.773V428.873ZM139.773 428.873V442.376H140.559V428.873H139.773ZM155.201 431.87H162.249C166.561 431.87 169.044 429.273 169.044 425.772C169.044 422.272 166.561 419.71 162.249 419.71H155.201V431.87ZM200.509 440.832H212.836L206.645 423.479L200.509 440.832Z" fill="white"/>
<rect x="261.374" y="513" width="48" height="48" fill="white"/>
<path opacity="0.200637" d="M281.374 530L288.387 537.013L281.374 544.027" stroke="#1D1D1D"/>
</g>
</g>
<defs>
<filter id="filter0_d_0:1644" x="0.689697" y="0" width="441.073" height="732.407" filterUnits="userSpaceOnUse" color-interpolation-filters="sRGB">
<feFlood flood-opacity="0" result="BackgroundImageFix"/>
<feColorMatrix in="SourceAlpha" type="matrix" values="0 0 0 0 0 0 0 0 0 0 0 0 0 0 0 0 0 0 127 0" result="hardAlpha"/>
<feOffset dx="20" dy="-40"/>
<feGaussianBlur stdDeviation="40"/>
<feColorMatrix type="matrix" values="0 0 0 0 0.364781 0 0 0 0 0.00861907 0 0 0 0 0.00861907 0 0 0 0.497569 0"/>
<feBlend mode="normal" in2="BackgroundImageFix" result="effect1_dropShadow_0:1644"/>
<feBlend mode="normal" in="SourceGraphic" in2="effect1_dropShadow_0:1644" result="shape"/>
</filter>
<filter id="filter1_f_0:1644" x="339.829" y="233.924" width="4.21259" height="72.3102" filterUnits="userSpaceOnUse" color-interpolation-filters="sRGB">
<feFlood flood-opacity="0" result="BackgroundImageFix"/>
<feBlend mode="normal" in="SourceGraphic" in2="BackgroundImageFix" result="shape"/>
<feGaussianBlur stdDeviation="0.621523" result="effect1_foregroundBlur_0:1644"/>
</filter>
<filter id="filter2_f_0:1644" x="58.7561" y="273.487" width="3.52198" height="37.1907" filterUnits="userSpaceOnUse" color-interpolation-filters="sRGB">
<feFlood flood-opacity="0" result="BackgroundImageFix"/>
<feBlend mode="normal" in="SourceGraphic" in2="BackgroundImageFix" result="shape"/>
<feGaussianBlur stdDeviation="0.621523" result="effect1_foregroundBlur_0:1644"/>
</filter>
<filter id="filter3_f_0:1644" x="58.7561" y="229.759" width="3.52198" height="37.1907" filterUnits="userSpaceOnUse" color-interpolation-filters="sRGB">
<feFlood flood-opacity="0" result="BackgroundImageFix"/>
<feBlend mode="normal" in="SourceGraphic" in2="BackgroundImageFix" result="shape"/>
<feGaussianBlur stdDeviation="0.621523" result="effect1_foregroundBlur_0:1644"/>
</filter>
<filter id="filter4_f_0:1644" x="58.7561" y="191.584" width="3.52198" height="22.6148" filterUnits="userSpaceOnUse" color-interpolation-filters="sRGB">
<feFlood flood-opacity="0" result="BackgroundImageFix"/>
<feBlend mode="normal" in="SourceGraphic" in2="BackgroundImageFix" result="shape"/>
<feGaussianBlur stdDeviation="0.621523" result="effect1_foregroundBlur_0:1644"/>
</filter>
<filter id="filter5_ii_0:1644" x="61.3738" y="120" width="278.717" height="572.407" filterUnits="userSpaceOnUse" color-interpolation-filters="sRGB">
<feFlood flood-opacity="0" result="BackgroundImageFix"/>
<feBlend mode="normal" in="SourceGraphic" in2="BackgroundImageFix" result="shape"/>
<feColorMatrix in="SourceAlpha" type="matrix" values="0 0 0 0 0 0 0 0 0 0 0 0 0 0 0 0 0 0 127 0" result="hardAlpha"/>
<feOffset/>
<feGaussianBlur stdDeviation="4"/>
<feComposite in2="hardAlpha" operator="arithmetic" k2="-1" k3="1"/>
<feColorMatrix type="matrix" values="0 0 0 0 0.472549 0 0 0 0 0.472549 0 0 0 0 0.472549 0 0 0 1 0"/>
<feBlend mode="normal" in2="shape" result="effect1_innerShadow_0:1644"/>
<feColorMatrix in="SourceAlpha" type="matrix" values="0 0 0 0 0 0 0 0 0 0 0 0 0 0 0 0 0 0 127 0" result="hardAlpha"/>
<feOffset/>
<feGaussianBlur stdDeviation="0.5"/>
<feComposite in2="hardAlpha" operator="arithmetic" k2="-1" k3="1"/>
<feColorMatrix type="matrix" values="0 0 0 0 0.231551 0 0 0 0 0.231551 0 0 0 0 0.231551 0 0 0 1 0"/>
<feBlend mode="normal" in2="effect1_innerShadow_0:1644" result="effect2_innerShadow_0:1644"/>
</filter>
<filter id="filter6_f_0:1644" x="297.607" y="123.81" width="60.3557" height="33.107" filterUnits="userSpaceOnUse" color-interpolation-filters="sRGB">
<feFlood flood-opacity="0" result="BackgroundImageFix"/>
<feBlend mode="normal" in="SourceGraphic" in2="BackgroundImageFix" result="shape"/>
<feGaussianBlur stdDeviation="2.04958" result="effect1_foregroundBlur_0:1644"/>
</filter>
<filter id="filter7_f_0:1644" x="45.5173" y="123.81" width="60.3557" height="33.107" filterUnits="userSpaceOnUse" color-interpolation-filters="sRGB">
<feFlood flood-opacity="0" result="BackgroundImageFix"/>
<feBlend mode="normal" in="SourceGraphic" in2="BackgroundImageFix" result="shape"/>
<feGaussianBlur stdDeviation="2.04958" result="effect1_foregroundBlur_0:1644"/>
</filter>
<filter id="filter8_f_0:1644" x="221.396" y="136.435" width="7.3285" height="7.98707" filterUnits="userSpaceOnUse" color-interpolation-filters="sRGB">
<feFlood flood-opacity="0" result="BackgroundImageFix"/>
<feBlend mode="normal" in="SourceGraphic" in2="BackgroundImageFix" result="shape"/>
<feGaussianBlur stdDeviation="1.24305" result="effect1_foregroundBlur_0:1644"/>
</filter>
<filter id="filter9_f_0:1644" x="224.509" y="137.126" width="7.3285" height="7.98707" filterUnits="userSpaceOnUse" color-interpolation-filters="sRGB">
<feFlood flood-opacity="0" result="BackgroundImageFix"/>
<feBlend mode="normal" in="SourceGraphic" in2="BackgroundImageFix" result="shape"/>
<feGaussianBlur stdDeviation="1.24305" result="effect1_foregroundBlur_0:1644"/>
</filter>
<linearGradient id="paint0_linear_0:1644" x1="340.036" y1="235.167" x2="340.036" y2="304.991" gradientUnits="userSpaceOnUse">
<stop stop-color="#BBBBBB"/>
<stop offset="0.049488" stop-color="#EAEAEA"/>
<stop offset="0.502066" stop-color="#D0D0D0"/>
<stop offset="0.95938" stop-color="#EBEBEB"/>
<stop offset="1" stop-color="#BBBBBB"/>
</linearGradient>
<linearGradient id="paint1_linear_0:1644" x1="61.7256" y1="274.73" x2="61.7256" y2="309.435" gradientUnits="userSpaceOnUse">
<stop stop-color="#BBBBBB"/>
<stop offset="0.049488" stop-color="#EAEAEA"/>
<stop offset="0.502066" stop-color="#D0D0D0"/>
<stop offset="0.95938" stop-color="#EBEBEB"/>
<stop offset="1" stop-color="#BBBBBB"/>
</linearGradient>
<linearGradient id="paint2_linear_0:1644" x1="61.7256" y1="231.002" x2="61.7256" y2="265.707" gradientUnits="userSpaceOnUse">
<stop stop-color="#BBBBBB"/>
<stop offset="0.049488" stop-color="#EAEAEA"/>
<stop offset="0.502066" stop-color="#D0D0D0"/>
<stop offset="0.95938" stop-color="#EBEBEB"/>
<stop offset="1" stop-color="#BBBBBB"/>
</linearGradient>
<linearGradient id="paint3_linear_0:1644" x1="61.7256" y1="192.827" x2="61.7256" y2="212.956" gradientUnits="userSpaceOnUse">
<stop stop-color="#BBBBBB"/>
<stop offset="0.049488" stop-color="#EAEAEA"/>
<stop offset="0.502066" stop-color="#D0D0D0"/>
<stop offset="0.95938" stop-color="#EBEBEB"/>
<stop offset="1" stop-color="#BBBBBB"/>
</linearGradient>
<linearGradient id="paint4_linear_0:1644" x1="340.436" y1="170.09" x2="336.287" y2="170.09" gradientUnits="userSpaceOnUse">
<stop stop-color="#354640"/>
<stop offset="1" stop-color="#354640" stop-opacity="0.426054"/>
</linearGradient>
<linearGradient id="paint5_linear_0:1644" x1="290.641" y1="120" x2="290.641" y2="124.145" gradientUnits="userSpaceOnUse">
<stop stop-color="#354640"/>
<stop offset="1" stop-color="#354640" stop-opacity="0.426054"/>
</linearGradient>
<linearGradient id="paint6_linear_0:1644" x1="61.3738" y1="170.09" x2="65.5234" y2="170.09" gradientUnits="userSpaceOnUse">
<stop stop-color="#354640"/>
<stop offset="1" stop-color="#354640" stop-opacity="0.426054"/>
</linearGradient>
<linearGradient id="paint7_linear_0:1644" x1="73.1911" y1="323.876" x2="68.2898" y2="323.876" gradientUnits="userSpaceOnUse">
<stop stop-color="#3A3A3A"/>
<stop offset="1" stop-color="#B8B8B8"/>
</linearGradient>
<linearGradient id="paint8_linear_0:1644" x1="327.771" y1="323.876" x2="332.672" y2="323.876" gradientUnits="userSpaceOnUse">
<stop stop-color="#3A3A3A"/>
<stop offset="1" stop-color="#B8B8B8"/>
</linearGradient>
<radialGradient id="paint9_radial_0:1644" cx="0" cy="0" r="1" gradientUnits="userSpaceOnUse" gradientTransform="translate(200.142 126.563) rotate(90) scale(21.3746 1094.65)">
<stop stop-color="#EEEEEE" stop-opacity="0.163638"/>
<stop offset="1" stop-opacity="0.01"/>
</radialGradient>
</defs>
</svg>
